<svg width="20" height="20" viewBox="0 0 20 20" fill="none" xmlns="http://www.w3.org/2000/svg">
    <path
        d="M17.4914 9.99514C17.9512 9.99514 18.3285 9.62115 18.2827 9.16388C18.0907 7.25162 17.2433 5.46461 15.8841 4.10579C14.525 2.74697 12.7378 1.89997 10.8255 1.70837C10.3674 1.66255 9.99426 2.03987 9.99426 2.49964V9.16304C9.99426 9.38395 10.082 9.59581 10.2382 9.75201C10.3944 9.90822 10.6063 9.99597 10.8272 9.99597L17.4914 9.99514Z"
        stroke="currentColor" stroke-width="1.66667" stroke-linecap="round" stroke-linejoin="round" />
    <path
        d="M17.6663 13.2349C17.1364 14.4881 16.3077 15.5923 15.2524 16.4511C14.1972 17.3099 12.9476 17.8972 11.613 18.1615C10.2784 18.4258 8.89932 18.3592 7.5964 17.9674C6.29347 17.5757 5.10635 16.8707 4.13882 15.9142C3.17129 14.9576 2.45281 13.7786 2.04619 12.4803C1.63957 11.1819 1.5572 9.80369 1.80628 8.46613C2.05535 7.12858 2.62829 5.8724 3.475 4.80742C4.32171 3.74245 5.41641 2.9011 6.6634 2.35693"
        stroke="currentColor" stroke-width="1.66667" stroke-linecap="round" stroke-linejoin="round" />
</svg>