<svg width="20" height="20" viewBox="0 0 20 20" fill="none" xmlns="http://www.w3.org/2000/svg">
    <path
        d="M12.4939 17.4914V10.828C12.4939 10.6071 12.4061 10.3953 12.2499 10.2391C12.0937 10.0829 11.8819 9.99512 11.6609 9.99512H8.32925C8.10834 9.99512 7.89648 10.0829 7.74028 10.2391C7.58408 10.3953 7.49632 10.6071 7.49632 10.828V17.4914"
        stroke="currentColor" stroke-width="1.66667" stroke-linecap="round" stroke-linejoin="round" />
    <path
        d="M2.49878 8.32933C2.49872 8.087 2.55153 7.84758 2.65353 7.62777C2.75552 7.40795 2.90425 7.21304 3.08932 7.05662L8.9198 2.05907C9.22047 1.80495 9.60143 1.66553 9.9951 1.66553C10.3888 1.66553 10.7697 1.80495 11.0704 2.05907L16.9009 7.05662C17.086 7.21304 17.2347 7.40795 17.3367 7.62777C17.4387 7.84758 17.4915 8.087 17.4914 8.32933V15.8257C17.4914 16.2675 17.3159 16.6912 17.0035 17.0036C16.6911 17.316 16.2674 17.4915 15.8256 17.4915H4.16463C3.72282 17.4915 3.2991 17.316 2.9867 17.0036C2.67429 16.6912 2.49878 16.2675 2.49878 15.8257V8.32933Z"
        stroke="currentColor" stroke-width="1.66667" stroke-linecap="round" stroke-linejoin="round" />
</svg>