<svg width="16" height="16" viewBox="0 0 16 16" fill="none" xmlns="http://www.w3.org/2000/svg">
    <path
        d="M3.32916 3.32913C3.32909 3.09482 3.39085 2.86464 3.50819 2.66183C3.62554 2.45902 3.79432 2.29076 3.99749 2.17404C4.20067 2.05732 4.43104 1.99628 4.66535 1.99708C4.89966 1.99787 5.12961 2.06048 5.33199 2.17857L13.32 6.83807C13.5216 6.95505 13.6889 7.12288 13.8053 7.3248C13.9217 7.52672 13.9831 7.75566 13.9833 7.98873C13.9835 8.22179 13.9225 8.45084 13.8065 8.65296C13.6904 8.85508 13.5234 9.0232 13.322 9.14053L5.33199 13.8014C5.12961 13.9195 4.89966 13.9821 4.66535 13.9829C4.43104 13.9836 4.20067 13.9226 3.99749 13.8059C3.79432 13.6892 3.62554 13.5209 3.50819 13.3181C3.39085 13.1153 3.32909 12.8851 3.32916 12.6508V3.32913Z"
        stroke="currentColor" stroke-width="1.33333" stroke-linecap="round" stroke-linejoin="round" />
</svg>