<svg width="20" height="20" viewBox="0 0 20 20" fill="none" xmlns="http://www.w3.org/2000/svg">
    <path
        d="M15.8256 5.83048V3.3317C15.8256 3.1108 15.7378 2.89894 15.5816 2.74274C15.4254 2.58653 15.2136 2.49878 14.9927 2.49878H4.16463C3.72282 2.49878 3.2991 2.67429 2.9867 2.9867C2.67429 3.2991 2.49878 3.72282 2.49878 4.16463C2.49878 4.60644 2.67429 5.03016 2.9867 5.34256C3.2991 5.65497 3.72282 5.83048 4.16463 5.83048H16.6585C16.8794 5.83048 17.0913 5.91823 17.2475 6.07444C17.4037 6.23064 17.4914 6.4425 17.4914 6.6634V9.9951M17.4914 9.9951H14.9927C14.5508 9.9951 14.1271 10.1706 13.8147 10.483C13.5023 10.7954 13.3268 11.2191 13.3268 11.661C13.3268 12.1028 13.5023 12.5265 13.8147 12.8389C14.1271 13.1513 14.5508 13.3268 14.9927 13.3268H17.4914C17.7123 13.3268 17.9242 13.239 18.0804 13.0828C18.2366 12.9266 18.3244 12.7148 18.3244 12.4939V10.828C18.3244 10.6071 18.2366 10.3953 18.0804 10.2391C17.9242 10.0829 17.7123 9.9951 17.4914 9.9951Z"
        stroke="currentColor" stroke-width="1.66667" stroke-linecap="round" stroke-linejoin="round" />
    <path
        d="M2.49878 4.16455V15.8255C2.49878 16.2673 2.67429 16.691 2.9867 17.0034C3.2991 17.3158 3.72282 17.4914 4.16463 17.4914H16.6585C16.8794 17.4914 17.0913 17.4036 17.2475 17.2474C17.4037 17.0912 17.4914 16.8793 17.4914 16.6584V13.3267"
        stroke="currentColor" stroke-width="1.66667" stroke-linecap="round" stroke-linejoin="round" />
</svg>